<svg width="256" height="199" viewBox="0 0 256 199" fill="none" xmlns="http://www.w3.org/2000/svg">
<g clip-path="url(#clip0_2051_3419)">
<path d="M216.856 16.597C200.067 8.74172 182.306 3.1602 164.042 0C161.767 4.113 159.109 9.645 157.276 14.046C137.584 11.085 118.073 11.085 98.7429 14.046C96.9109 9.646 94.1929 4.113 91.8969 0C73.6149 3.16165 55.8385 8.75739 39.0419 16.638C5.61793 67.147 -3.44307 116.4 1.08693 164.956C23.2559 181.511 44.7399 191.568 65.8619 198.149C71.1113 190.93 75.7516 183.288 79.7349 175.3C72.1512 172.413 64.8402 168.855 57.8889 164.668C59.7182 163.312 61.5044 161.899 63.2449 160.431C105.367 180.133 151.135 180.133 192.755 160.431C194.503 161.889 196.289 163.302 198.11 164.668C191.147 168.866 183.823 172.431 176.224 175.321C180.23 183.341 184.862 190.991 190.097 198.169C211.239 191.589 232.743 181.532 254.912 164.956C260.228 108.668 245.832 59.866 216.856 16.596V16.597ZM85.4739 135.095C72.8289 135.095 62.4589 123.29 62.4589 108.915C62.4589 94.54 72.6079 82.715 85.4739 82.715C98.3409 82.715 108.71 94.519 108.489 108.915C108.509 123.29 98.3409 135.095 85.4739 135.095ZM170.525 135.095C157.88 135.095 147.511 123.29 147.511 108.915C147.511 94.54 157.659 82.715 170.525 82.715C183.392 82.715 193.761 94.519 193.54 108.915C193.54 123.29 183.392 135.095 170.525 135.095Z" fill="#5865F2"/>
</g>
<defs>
<clipPath id="clip0_2051_3419">
<rect width="256" height="199" fill="white"/>
</clipPath>
</defs>
</svg>
